<svg version="1" xmlns="http://www.w3.org/2000/svg" width="682.667" height="682.667" viewBox="0 0 512.000000 512.000000"><path d="M0 256v256h512V0H0v256zM414.4 22.3c34.1 8.4 59.1 30.3 71.2 62.5 2.6 6.7 3 9.7 1.4 8.7-.6-.3-1-.1-1 .4 0 .6.6 1.1 1.4 1.1.7 0 1.6 1 2 2.2 1.1 4.2.7 5.8-1.4 5.8-1.5 0-2-.7-2-2.5 0-1.4-.4-3.3-.9-4.3-.4-.9-1.9-5.1-3.1-9.2-2.4-7.7-5.5-12.4-7.6-11.6-.7.3-1-.2-.7-1.4.3-1 0-2.1-.6-2.4-.6-.4-1.1-.2-1.1.5s-2.2-1.7-4.9-5.2c-11.5-15.1-29.6-27.3-49.6-33.6l-9-2.8h-305l-8.8 2.8c-17.3 5.4-30.2 13.2-44.1 26.9-8.8 8.6-10.6 9.9-10.6 7.7 0-.5.5-.7 1-.4.6.3 1 .1 1-.4 0-2.3-1.9-.9-4.8 3.5-3.6 5.4-8.6 17-10.6 24.7-2.4 9.2-5.6 12.7-5.6 6.1 0-2.1.4-3.3 1-2.9.6.4 1-1.2 1-3.9 0-2.6.5-4.6 1.1-4.6.6 0 .9-1.1.7-2.4-.1-1.3.3-3 1-3.9.7-.8 1.2-2.4 1-3.4-.2-1 .2-1.7.8-1.6.6.1 1.1-.8 1-2-.1-1.4.4-2.1 1.3-1.9.9.2 1.1-.3.7-1.4-.4-1.1.3-2.7 2-4.5 1.4-1.5 2.5-2.9 2.4-3.1-.8-1.8 3.8-8 5.3-7.1.5.3.7.1.4-.4-.4-.6.2-1.8 1.3-2.8 1.1-1 2-2.3 2-3 0-.6 1.8-2.9 4-5s4-3.5 4-3 1.7-.8 3.8-2.8c2.1-2.1 4.2-3.4 4.6-3 .4.5.6.1.4-.7-.2-1 .3-1.4 1.5-1.2.9.2 1.7-.2 1.7-.8 0-.5.6-1 1.3-1 .8 0 2.4-1.1 3.7-2.5 1.3-1.4 3-2.3 3.7-2.1.7.3 1.3.1 1.3-.5 0-1 4.4-3.2 7.3-3.4 1-.2 2.3-.7 3-1.4.6-.6 2.1-1.1 3.3-1.1 1.3 0 2.5-.4 2.8-.8.2-.4 1.9-.9 3.8-1 1.8-.2 3.7-.7 4.2-1.2.6-.6 61.7-.8 155-.7 140.9.2 154.7.4 161 2zm76.3 92.4c-.3 1-.5.4-.5-1.2 0-1.7.2-2.4.5-1.8.2.7.2 2.1 0 3zm0 9c-.2 1.6-.4.5-.4-2.2 0-2.8.2-4 .4-2.8.2 1.3.2 3.5 0 5zm-247.8 17.7c5.9 3.1 6.6 5.5 6.6 22.7s-.5 19.3-5.8 22.5c-2.9 1.7-5.7 1.9-27.2 2.2-29.4.4-31.9.1-36.2-4.5l-3.3-3.4v-16.4c0-16.3 0-16.4 2.7-19.5 1.4-1.8 3.6-3.6 4.7-4 1.2-.5 14.2-.9 28.9-.9 21.5-.1 27.3.2 29.6 1.3zm.9 61.6c5.2 3.2 6.2 7 6.2 22.7 0 15.8-1.2 19.5-7.1 22.5-3 1.6-6.6 1.8-29.7 1.8-28.5 0-29.9-.2-34.1-5.6-1.9-2.5-2.1-4-2.1-18.6 0-25.5-1.1-24.7 36.5-24.8 25.3 0 27.2.1 30.3 2zm170.3-.5c5.9 3.1 6.9 6.3 6.9 23 0 13.3-.2 15.4-2 18.3-3.5 5.8-6 6.2-35 6.2-28.3 0-29.7-.2-33.9-5.6-1.9-2.5-2.1-4-2.1-18.8 0-17.8.3-19 6.4-22.7 2.8-1.7 5.3-1.9 29.9-1.9 22.2 0 27.3.3 29.8 1.5zm-171 61c5.9 3.1 6.9 6.3 6.9 22.8 0 16.6-.8 19.4-6.3 22.7-3 1.9-5.2 2-30.7 2-31.7 0-32.4-.2-35.5-8.3-2.5-6.5-1.9-29.8.9-34.3 3.8-6.2 4.3-6.3 34.4-6.4 22.7 0 27.8.3 30.3 1.5zm85.3 0c6.2 2.9 7.1 6.1 6.8 23-.1 8.2-.7 16.2-1.3 17.7-.6 1.5-2.6 3.7-4.4 4.8-3 1.9-4.9 2-30.6 2-25.4 0-27.6-.1-30.6-2-5.5-3.3-6.3-6.2-6.3-22.5s.8-19.2 6.3-22.5c3-1.8 5.2-2 30-2 22 0 27.5.3 30.1 1.5zm85.7 0c5.9 3.1 6.9 6.3 6.9 22.8 0 16.6-.8 19.4-6.3 22.7-3 1.9-5.2 2-30.5 2-37.3 0-36.2.7-36.2-24.8 0-15.9 0-16.1 2.7-19.2 1.4-1.8 3.6-3.6 4.7-4 1.2-.5 14.2-.9 28.9-.9 22.3-.1 27.3.2 29.8 1.4zm-257.1 61c1.5.8 3.8 2.7 4.9 4.1 1.9 2.5 2.1 4 2.1 18.6 0 25.5 1.1 24.8-36.3 24.8-26.9 0-27.5 0-30.8-2.3-5.3-3.6-5.9-5.6-5.9-22.2 0-16.9 1.1-20.3 7.3-23 4.8-2.1 54.6-2.1 58.7 0zm85.9.3c6 3.2 7.1 6.7 7.1 23 0 16-.8 18.9-6.3 22.2-3 1.9-5.2 2-30.5 2-37.4 0-36.2.8-36.2-24.7 0-17.4.4-18.7 6.4-22.4 2.8-1.7 5.3-1.9 29.6-1.9 23.8 0 26.9.2 29.9 1.8zm84.5-.4c1.8.7 4.2 2.6 5.4 4.1 2 2.6 2.2 3.9 2.2 18.7 0 25.6 1.2 24.8-36.2 24.8-25.3 0-27.5-.1-30.5-2-5.5-3.3-6.3-6.2-6.3-22.2 0-16.3 1.1-19.8 7.1-23 3-1.6 6.1-1.8 29.2-1.8 19.6 0 26.5.3 29.1 1.4zm86.1 0c1.9.8 4.4 3 5.5 4.8 1.9 3 2 4.6 1.8 19.6l-.3 16.4-3.7 3.4-3.8 3.4h-28.1c-38.1 0-36.9.8-36.9-24.7 0-17.4.4-18.7 6.4-22.4 2.8-1.7 5.3-1.9 29.4-1.9 20.6 0 27 .3 29.7 1.4z"/></svg>